<svg version="1.1" id="Layer_1" xmlns="http://www.w3.org/2000/svg" xmlns:xlink="http://www.w3.org/1999/xlink" x="0px" y="0px"
	 width="100%" viewBox="0 0 496 496" enable-background="new 0 0 496 496" xml:space="preserve">
<path fill="#000000" opacity="1.000000" stroke="none" 
	d="
M572.000000,1081.000000 
	C382.855103,1081.000000 194.210205,1080.988403 5.565358,1081.086304 
	C1.936887,1081.088257 0.895617,1080.466309 0.896831,1076.566406 
	C1.007921,719.607605 1.009717,362.648773 0.881947,5.689982 
	C0.880450,1.509243 1.879495,0.896621 5.808996,0.897833 
	C362.601105,1.007914 719.393250,1.007829 1076.185425,0.898634 
	C1080.103271,0.897435 1081.120361,1.491662 1081.118774,5.684381 
	C1080.990234,362.476501 1080.989380,719.268616 1081.123657,1076.060791 
	C1081.125366,1080.453491 1080.010620,1081.102539 1075.940186,1081.099731 
	C908.126892,1080.983154 740.313416,1081.000000 572.000000,1081.000000 
z"/>
<path fill="#000000" opacity="1.000000" stroke="none" 
	d="
M911.279663,463.953796 
	C912.981567,464.034576 914.830200,462.850647 915.022278,465.462799 
	C915.983459,478.531616 919.846863,491.408020 918.196899,504.633850 
	C916.049194,521.849304 904.349365,532.870239 886.798645,534.780579 
	C871.149597,536.484009 856.951355,527.673584 851.462158,512.107788 
	C847.108704,499.762787 847.407776,486.548309 845.511902,473.741028 
	C845.067139,470.736450 848.042175,471.614166 849.449097,471.432526 
	C864.295410,469.515808 879.165710,467.784454 894.029358,466.001862 
	C899.644226,465.328491 905.259155,464.655090 911.279663,463.953796 
z"/>
<path fill="#000000" opacity="1.000000" stroke="none" 
	d="
M244.084824,432.843506 
	C246.680206,445.145447 240.677505,458.396027 230.327118,463.820312 
	C220.750916,468.838776 207.773575,466.631683 199.971039,458.657501 
	C189.331757,447.784271 191.259628,427.543488 203.813599,418.448059 
	C204.986374,417.598389 206.230713,416.847534 207.292862,416.148804 
	C207.331192,414.780121 206.405182,415.065491 205.899078,414.887573 
	C201.567551,413.364838 200.496460,409.322784 203.451050,405.748627 
	C204.450180,404.539948 205.483124,405.037720 206.585159,405.398315 
	C221.401474,410.245911 236.359238,414.705536 250.995270,420.046844 
	C264.411041,424.942841 269.116486,434.494537 266.093872,448.519287 
	C264.088470,457.824127 259.942261,465.955139 252.907898,472.586151 
	C249.940491,475.383423 248.669098,473.608093 246.713882,471.421204 
	C244.719269,469.190186 244.133820,468.025513 246.974777,465.806976 
	C252.805298,461.253815 256.060272,454.837738 257.704712,447.717468 
	C260.173370,437.028198 254.544556,429.640320 242.446671,427.753937 
	C242.998444,429.402405 243.501984,430.906738 244.084824,432.843506 
z"/>
<path fill="#000000" opacity="1.000000" stroke="none" 
	d="
M314.266418,803.546631 
	C325.351257,797.900208 336.290131,792.293152 347.007477,786.290588 
	C350.182129,784.512390 351.886322,785.446045 354.309570,787.444946 
	C356.885254,789.569580 357.484192,791.285706 356.217743,794.553101 
	C350.101929,810.331848 344.311493,826.236755 338.389008,842.090637 
	C338.281952,842.377136 337.968048,842.586304 337.746704,842.828003 
	C330.802582,838.093567 330.821899,838.100891 333.670502,830.571533 
	C337.882660,819.438110 342.064087,808.293091 346.376068,796.841064 
	C344.315094,796.511353 343.183350,797.584656 342.003387,798.218018 
	C331.323364,803.950684 320.590881,809.595886 310.077789,815.622620 
	C307.229706,817.255249 305.975769,815.852722 304.160767,814.399780 
	C302.238922,812.861145 300.984497,811.552551 302.120911,808.675354 
	C306.447845,797.720398 310.527191,786.666626 314.598755,775.612854 
	C315.201233,773.977173 316.409668,772.424194 315.891571,770.005432 
	C305.003693,775.984924 294.303314,781.861511 283.602844,787.737976 
	C276.971466,791.379822 276.971405,791.379700 271.048828,785.396179 
	C278.781158,781.160645 286.398529,776.988892 294.015106,772.815674 
	C301.879425,768.506775 309.837738,764.356995 317.556213,759.800964 
	C320.328827,758.164429 321.807465,759.234558 323.522339,761.014709 
	C325.232941,762.790405 327.856171,763.633667 326.379608,767.401123 
	C321.900818,778.829102 317.958710,790.467407 313.782898,802.392944 
	C313.536469,803.116028 313.643707,803.334167 314.266418,803.546631 
z"/>
<path fill="#000000" opacity="1.000000" stroke="none" 
	d="
M222.452393,547.729736 
	C222.283066,546.110718 222.154907,544.951599 222.084183,543.789062 
	C221.780792,538.802185 223.747681,537.221558 228.764343,537.988098 
	C230.755753,538.292480 230.622925,539.592590 230.725052,540.830811 
	C231.969818,555.921997 233.129532,571.020447 234.436722,586.106079 
	C234.656281,588.639832 233.294876,588.756287 231.484192,588.901917 
	C214.732559,590.249756 197.983856,591.634216 181.234055,593.005005 
	C176.922287,593.357910 172.598892,593.604004 168.301620,594.084839 
	C165.897446,594.353943 164.818863,593.940369 164.610779,591.128357 
	C163.554855,576.858704 162.373245,562.595032 160.951630,548.357666 
	C160.515198,543.987000 163.411530,545.221191 165.577621,544.785889 
	C168.385376,544.221619 169.775162,544.751770 169.963333,548.109253 
	C170.531219,558.241272 171.580566,568.345825 172.194717,578.476013 
	C172.423096,582.243103 173.211166,584.196472 177.663162,583.280518 
	C181.708664,582.448059 185.941895,582.132629 190.075653,582.238953 
	C193.974930,582.339294 194.226273,580.624573 193.900620,577.472717 
	C192.960205,568.370911 192.504257,559.215271 191.410339,550.134705 
	C190.802750,545.091187 194.553558,547.162476 196.529510,546.469727 
	C199.106384,545.566223 199.908844,546.825134 200.072693,549.442627 
	C200.654755,558.741394 201.589828,568.017822 202.185150,577.315918 
	C202.373093,580.251343 203.230469,581.396423 206.369171,580.979980 
	C211.311905,580.324158 216.305252,579.976501 221.288620,579.728394 
	C224.184952,579.584167 225.289169,578.715820 224.939590,575.534851 
	C223.940125,566.440430 223.300903,557.306519 222.452393,547.729736 
z"/>
<path fill="#000000" opacity="1.000000" stroke="none" 
	d="
M755.466187,828.290405 
	C740.286133,828.731201 727.077881,817.317200 725.958069,803.201721 
	C724.693054,787.254639 734.966736,776.708374 754.885132,774.149658 
	C750.120789,768.394958 745.759888,762.774719 740.997681,757.518127 
	C738.462952,754.720337 738.611694,753.157532 741.635437,750.937744 
	C744.212646,749.046021 745.593140,747.423523 748.485596,751.036133 
	C761.797974,767.662598 775.448792,784.019348 789.080933,800.387329 
	C790.919800,802.595154 792.110046,804.146729 788.885376,806.099182 
	C786.563538,807.505066 784.639832,811.058105 782.013855,806.464478 
	C781.589172,805.721497 781.079651,804.667603 779.664490,804.704712 
	C777.461853,818.264160 769.298950,825.930664 755.466187,828.290405 
z"/>
<path fill="#000000" opacity="1.000000" stroke="none" 
	d="
M505.620148,909.949829 
	C509.213989,910.016846 512.393188,910.297852 515.518860,910.006226 
	C521.192261,909.476868 525.240173,906.030518 525.960327,901.571716 
	C526.705505,896.958069 524.598694,893.406128 518.833313,890.930237 
	C511.683380,887.859741 504.177612,885.585754 497.137543,882.299377 
	C487.838257,877.958496 484.419891,869.887878 487.462250,860.914734 
	C490.105194,853.119568 496.195190,849.372375 503.826355,848.057617 
	C514.681213,846.187378 525.144714,847.925964 534.581909,853.588684 
	C542.646057,858.427673 542.383667,857.754639 536.623047,865.686584 
	C528.680847,858.672241 519.380249,855.499695 508.808350,855.994080 
	C506.277679,856.112488 503.877808,856.640259 501.644073,857.844360 
	C495.143616,861.348572 494.566681,868.886536 500.468079,873.321899 
	C503.579041,875.660095 507.284119,876.708923 510.875641,877.969971 
	C516.196472,879.838074 521.650208,881.417236 526.566284,884.229614 
	C532.413086,887.574463 536.170166,892.364685 535.979858,899.507935 
	C535.786255,906.772461 532.547363,912.251404 526.189026,915.744019 
	C516.214722,921.222839 496.483398,919.303284 487.611725,912.181946 
	C486.243134,911.083435 485.566345,910.232910 486.698822,908.524353 
	C487.780090,906.893250 488.557648,905.060791 489.565948,903.130676 
	C494.502747,906.376953 499.556885,908.823669 505.620148,909.949829 
z"/>
<path fill="#000000" opacity="1.000000" stroke="none" 
	d="
M698.623413,263.531311 
	C702.306763,265.883179 705.833496,267.728729 709.805176,268.519073 
	C714.067017,269.367157 717.786316,268.415833 720.441162,264.786743 
	C723.237366,260.964478 722.342285,257.097137 719.745239,253.720139 
	C717.424072,250.701935 714.587097,248.077774 711.951111,245.305069 
	C709.197449,242.408539 706.264709,239.668396 703.669312,236.637955 
	C697.120117,228.991165 696.209839,221.952637 700.602600,214.746994 
	C705.098572,207.372070 713.150574,204.179810 722.308228,206.463470 
	C732.517090,209.009247 740.614075,214.794556 747.260437,222.921371 
	C750.177002,226.487579 749.909973,228.841064 745.891357,230.935425 
	C745.032776,231.382874 744.302795,232.077271 743.283386,232.827240 
	C740.105591,227.846786 736.625854,223.179443 731.637024,219.960602 
	C729.688721,218.703537 727.669800,217.504547 725.556213,216.564224 
	C718.737610,213.530594 712.826050,214.428101 709.690491,218.816208 
	C706.652649,223.067459 707.624146,227.512955 713.154053,233.381165 
	C717.265442,237.744080 721.719482,241.788834 725.753967,246.218430 
	C732.927185,254.093994 734.066528,261.571320 729.536438,268.858276 
	C724.892334,276.328857 716.349487,279.408386 706.739685,276.624878 
	C696.343933,273.613739 687.880005,267.627930 681.532410,258.818695 
	C676.374634,251.660706 676.533081,251.192780 684.593689,246.621902 
	C687.658325,253.423309 692.087708,259.129547 698.623413,263.531311 
z"/>
<path fill="#000000" opacity="1.000000" stroke="none" 
	d="
M851.968262,382.093140 
	C862.075928,377.744873 871.908691,373.704651 881.526733,369.205475 
	C885.231873,367.472290 886.172119,368.983673 887.401855,371.990265 
	C888.547852,374.792145 889.740662,376.545502 885.621765,378.213593 
	C872.574646,383.497681 859.735413,389.295013 845.752991,395.354462 
	C852.771240,398.535095 858.846252,401.286804 864.919861,404.041382 
	C868.396362,405.618103 871.734802,407.728912 875.375610,408.663635 
	C882.062439,410.380371 883.170776,415.798981 885.598267,421.916199 
	C876.502869,418.251099 868.346680,415.161926 860.377319,411.648956 
	C857.486572,410.374664 856.360168,411.125427 855.043579,413.628082 
	C849.649048,423.882446 844.082153,434.046173 838.332275,444.699677 
	C835.024597,438.907806 832.063171,434.069794 836.704468,427.616425 
	C840.545532,422.275665 842.745117,415.783630 846.231689,410.147980 
	C848.419006,406.612396 846.932800,405.917999 844.090759,404.226410 
	C837.432678,400.263489 831.112793,400.070770 824.760010,404.405609 
	C821.211060,406.827209 820.362305,404.420593 819.310364,401.802643 
	C818.267395,399.207031 816.553711,397.115601 820.964233,395.390961 
	C831.313293,391.344177 841.409241,386.650116 851.968262,382.093140 
z"/>
<path fill="#000000" opacity="1.000000" stroke="none" 
	d="
M313.032104,328.114624 
	C301.762421,332.711365 292.053864,330.535126 283.787689,322.461517 
	C275.909668,314.767059 272.660492,305.431976 276.656982,294.743591 
	C280.571564,284.274323 288.159332,277.746887 299.556122,276.615540 
	C308.090027,275.768463 315.022522,279.435760 321.068665,285.195007 
	C323.105225,287.134949 321.850464,288.217285 320.469940,289.607971 
	C312.023956,298.116211 303.726501,306.775299 295.145844,315.144531 
	C292.544098,317.682159 293.259399,318.617706 296.004181,319.916290 
	C306.552948,324.907074 321.634064,316.303284 322.798981,303.876312 
	C323.273224,298.817200 325.794800,300.001434 328.634827,299.967590 
	C332.797241,299.918030 331.502716,302.818085 331.211304,304.859650 
	C329.636719,315.891815 322.739807,322.903015 313.032104,328.114624 
z"/>
<path fill="#000000" opacity="1.000000" stroke="none" 
	d="
M858.134033,566.737549 
	C857.227600,572.882568 857.132629,578.595825 860.869568,583.389038 
	C863.726929,587.054077 859.978088,587.318420 858.559937,588.789429 
	C856.709961,590.708496 855.379639,590.147827 853.839233,588.080505 
	C847.725647,579.875488 847.475464,565.493958 853.468567,555.427185 
	C860.181763,544.150879 874.032349,539.833496 887.066895,544.954224 
	C899.223328,549.729980 905.587585,561.991882 902.869934,575.401794 
	C900.339233,587.889160 889.106201,596.254700 875.854309,595.798157 
	C872.144897,595.670410 870.671509,594.800537 871.154663,590.613892 
	C872.488342,579.056274 873.180725,567.425842 874.421326,555.855774 
	C874.787537,552.440796 873.590881,552.211365 870.915344,552.908508 
	C863.873169,554.743530 860.229553,559.748657 858.134033,566.737549 
z"/>
<path fill="#000000" opacity="1.000000" stroke="none" 
	d="
M847.646851,662.004700 
	C834.738281,662.208801 825.109558,673.780029 827.826538,686.013367 
	C828.749573,690.169250 827.217224,690.983459 823.959534,691.916260 
	C819.874756,693.085754 819.988647,690.020020 819.457825,687.829102 
	C815.962891,673.403076 827.954773,655.124939 842.200928,653.026611 
	C858.300232,650.655273 873.271057,662.058044 874.398376,677.550354 
	C875.892944,698.089844 855.499512,712.135986 836.759827,703.556641 
	C834.263306,702.413635 833.659851,701.417175 834.929321,698.749634 
	C840.062805,687.962585 844.920349,677.044373 849.920837,666.193481 
	C850.933411,663.996155 851.865112,661.996216 847.646851,662.004700 
z"/>
<path fill="#000000" opacity="1.000000" stroke="none" 
	d="
M698.202637,808.098389 
	C721.007507,804.094238 734.283875,827.046753 729.074402,843.052856 
	C725.789062,853.147095 715.982056,860.751831 704.762085,861.685120 
	C695.190979,862.481140 684.713318,855.999817 680.036621,846.799683 
	C678.579041,843.932129 680.364136,843.485474 682.091980,842.536438 
	C693.446228,836.299683 704.786865,830.038330 716.143311,823.778870 
	C711.978516,817.287537 704.704468,814.752136 696.903259,817.300781 
	C690.678772,819.334290 685.352905,822.887085 683.116638,829.328674 
	C681.768494,833.211975 679.801208,831.183960 677.829102,830.684753 
	C675.410889,830.072571 674.073364,828.973083 675.244812,826.135437 
	C677.983643,819.501160 682.704834,814.759766 688.996704,811.590515 
	C691.795288,810.180786 694.855042,809.289429 698.202637,808.098389 
z"/>
<path fill="#000000" opacity="1.000000" stroke="none" 
	d="
M243.550568,673.579468 
	C233.634628,681.089905 223.170288,683.649963 212.075745,677.781372 
	C202.171310,672.542297 197.951706,663.486755 198.063766,652.548584 
	C198.170090,642.168274 206.991226,631.589417 216.811462,629.090820 
	C219.492477,628.408630 219.869537,629.971252 220.511459,631.764648 
	C224.483353,642.861389 228.657257,653.889404 232.413239,665.058228 
	C233.798615,669.177856 235.251205,668.490784 237.751877,666.229736 
	C246.383652,658.424866 244.819183,642.085693 234.121246,635.472595 
	C229.769012,632.782104 232.233536,631.040344 233.401550,628.624756 
	C235.198837,624.907593 237.258759,627.494812 238.993088,628.528320 
	C250.414169,635.334229 259.146057,659.163574 243.550568,673.579468 
z"/>
<path fill="#000000" opacity="1.000000" stroke="none" 
	d="
M337.367798,289.815704 
	C327.558746,284.607361 321.715973,276.967377 320.756714,266.126099 
	C319.688538,254.053879 327.386688,243.010162 339.337616,239.040390 
	C350.218262,235.426147 362.553162,239.983856 369.098053,249.765625 
	C370.698181,252.157104 369.846771,253.105316 367.926025,254.441193 
	C358.500031,260.996857 349.144745,267.654388 339.776550,274.292908 
	C338.439758,275.240204 337.168732,276.280304 335.848083,277.292175 
	C346.834839,289.270905 364.667786,280.041412 367.779144,268.883667 
	C369.196320,263.801605 371.709442,265.450867 374.588104,266.142822 
	C378.704315,267.132263 376.319397,269.970123 375.793060,271.693909 
	C371.873535,284.530304 353.200836,296.718933 337.367798,289.815704 
z"/>
<path fill="#000000" opacity="1.000000" stroke="none" 
	d="
M500.033569,217.670654 
	C500.405853,221.938004 500.693909,225.756683 501.118683,229.560074 
	C501.621948,234.066528 498.064178,232.579346 496.043549,232.828308 
	C494.102814,233.067413 491.384369,234.439011 491.025543,230.314957 
	C489.179047,209.093491 487.144531,187.888199 485.112000,166.683350 
	C484.899414,164.465622 485.319489,163.363739 487.836182,163.145660 
	C502.260895,161.895844 516.682251,160.590332 531.084412,159.106277 
	C535.983093,158.601517 534.007141,162.397354 534.701477,164.405411 
	C535.529419,166.799988 534.538452,167.844437 531.796509,168.053772 
	C521.011841,168.877136 510.260864,170.166336 499.470764,170.879700 
	C496.117126,171.101425 495.674225,172.341888 496.018158,175.154480 
	C496.725098,180.934906 497.345306,186.732651 497.742401,192.540985 
	C497.905243,194.923172 498.533020,195.546112 501.007965,195.283768 
	C510.605896,194.266388 520.261658,193.759048 529.837952,192.588058 
	C535.035156,191.952576 532.642395,195.814407 533.417847,197.718170 
	C534.499878,200.374802 533.059021,201.005219 530.538757,201.211899 
	C521.251343,201.973511 511.997772,203.214203 502.701263,203.766098 
	C499.118622,203.978760 498.649719,205.341232 499.084686,208.277298 
	C499.523254,211.237320 499.711792,214.234360 500.033569,217.670654 
z"/>
<path fill="#000000" opacity="1.000000" stroke="none" 
	d="
M813.410034,302.848419 
	C815.217529,310.520630 812.378662,316.340942 807.339783,321.214325 
	C800.157288,328.160980 792.676453,334.800049 785.528320,341.780731 
	C783.265747,343.990265 781.872803,343.972382 780.172302,341.448029 
	C778.812317,339.429199 774.918945,337.885834 779.227295,335.036835 
	C779.745728,334.694000 780.118164,334.130432 780.953247,333.255188 
	C771.000793,332.742126 764.723206,327.219543 760.183533,319.517059 
	C756.005066,312.427490 757.146973,304.845703 762.636902,299.958740 
	C768.369751,294.855499 775.253845,294.782593 782.246887,299.862854 
	C787.686401,303.814545 791.848022,309.088379 796.303711,314.018433 
	C798.423889,316.364227 799.539246,315.840607 801.252686,313.796875 
	C804.757996,309.616119 805.430237,304.652039 802.599609,299.956787 
	C799.101624,294.154602 793.946899,290.129364 787.484558,288.443481 
	C783.975952,287.528137 784.439575,286.119659 785.219055,283.665680 
	C786.054443,281.035431 786.737854,279.144989 790.296204,280.505768 
	C801.079651,284.629669 809.278809,291.298279 813.410034,302.848419 
z"/>
<path fill="#000000" opacity="1.000000" stroke="none" 
	d="
M285.036469,716.182129 
	C283.931488,717.330872 282.316986,717.506104 282.116302,719.312195 
	C291.782776,720.997131 297.391296,727.478516 300.867493,735.970459 
	C303.910675,743.404541 301.657928,750.354065 295.529968,754.464966 
	C289.496124,758.512573 282.933685,757.853210 276.836792,752.511047 
	C271.778625,748.078918 268.146729,742.441406 264.315857,737.030151 
	C262.217010,734.065491 260.850220,734.457581 258.691956,736.688904 
	C254.775543,740.738098 253.818680,745.222473 256.416534,750.354858 
	C259.451538,756.350708 264.130859,760.706848 270.430603,763.180481 
	C272.313690,763.919861 273.891998,764.569458 272.136597,766.920898 
	C270.788757,768.726318 271.262268,772.785339 266.991547,770.831848 
	C256.964630,766.245239 249.714874,758.937073 246.351105,748.428040 
	C244.072113,741.308044 246.192703,734.669434 251.959488,729.974731 
	C260.718903,722.843689 269.908997,716.242188 278.896912,709.390503 
	C279.908875,708.619019 280.946381,708.014893 281.688293,709.440002 
	C282.838837,711.650146 285.672180,712.928040 285.036469,716.182129 
z"/>
<path fill="#000000" opacity="1.000000" stroke="none" 
	d="
M472.024933,884.032471 
	C462.159637,892.324036 449.802124,893.565796 438.767700,887.602112 
	C429.149933,882.403931 423.786285,872.087402 425.117981,861.347717 
	C426.632965,849.129944 434.516327,840.162415 446.069580,837.514771 
	C457.103760,834.986206 470.027710,840.214661 476.186462,849.698792 
	C482.226044,858.999329 481.429688,872.146545 474.242920,881.516235 
	C473.636047,882.307434 472.935425,883.026733 472.024933,884.032471 
z"/>
<path fill="#000000" opacity="1.000000" stroke="none" 
	d="
M808.101807,780.154419 
	C792.603394,784.005676 776.814575,774.275024 773.945679,759.440063 
	C771.020874,744.316223 782.344604,728.288330 797.495117,726.107666 
	C812.459900,723.953674 827.085815,735.658691 828.592163,750.994507 
	C829.751831,762.800598 821.226379,775.122314 808.101807,780.154419 
z"/>
<path fill="#000000" opacity="1.000000" stroke="none" 
	d="
M558.438232,213.028076 
	C561.121094,220.650909 565.525696,223.431503 573.956238,223.137985 
	C580.972595,222.893692 586.328491,218.865433 587.925842,211.814209 
	C589.952271,202.869049 590.036194,193.649231 591.011353,184.554092 
	C591.277893,182.068329 590.861816,179.151443 594.940247,180.232895 
	C597.682922,180.960144 601.654724,179.380814 600.893250,185.263519 
	C598.992065,199.951294 597.564575,214.712585 596.448242,229.482254 
	C596.118286,233.847626 594.295776,233.400452 591.158264,233.269867 
	C587.673645,233.124802 586.288086,232.127243 587.178162,228.618332 
	C587.361755,227.894608 587.204834,227.084518 587.204834,225.779861 
	C580.788879,230.827682 574.096558,232.734055 566.388367,231.265625 
	C554.101685,228.925034 547.389587,220.830872 548.290527,208.400864 
	C549.000549,198.606384 550.236206,188.850525 550.991028,179.058441 
	C551.221252,176.072250 552.770020,175.521713 554.852661,176.457672 
	C556.964661,177.406799 561.561340,174.582001 560.815002,180.328217 
	C559.807739,188.084366 559.165466,195.887772 558.352661,203.669449 
	C558.040405,206.659042 557.847229,209.645355 558.438232,213.028076 
z"/>
<path fill="#000000" opacity="1.000000" stroke="none" 
	d="
M228.310333,488.456085 
	C220.091049,487.552765 212.331619,486.472198 204.535080,485.982269 
	C195.494934,485.414215 190.731506,489.221954 189.238220,497.456085 
	C187.655548,506.182953 191.673553,513.547302 199.706680,515.960327 
	C206.593811,518.029114 213.854553,517.874512 220.917328,518.942139 
	C222.889709,519.240295 224.903885,519.737671 226.857437,519.591187 
	C231.769485,519.222656 231.844376,521.536682 231.352448,525.581787 
	C230.905823,529.254395 229.766312,529.664001 226.453308,529.245361 
	C211.765686,527.389832 197.036957,525.861755 182.332123,524.138306 
	C180.527847,523.926819 177.239685,524.960693 178.362305,521.119202 
	C179.100128,518.594421 177.049820,513.571472 183.091049,514.988403 
	C183.869461,515.170959 184.727661,515.013367 186.120438,515.013367 
	C180.216354,507.571747 179.471359,499.424469 181.756866,490.929993 
	C184.265396,481.606506 191.055435,475.813782 200.595627,476.189423 
	C211.708710,476.627045 222.784546,478.157074 233.858002,479.380951 
	C238.230515,479.864197 235.577255,483.249603 235.783905,485.285400 
	C235.972900,487.147278 235.938660,489.561798 232.719254,489.001862 
	C231.410248,488.774139 230.076340,488.689636 228.310333,488.456085 
z"/>
<path fill="#000000" opacity="1.000000" stroke="none" 
	d="
M294.054840,343.023743 
	C295.348419,344.560791 298.511902,344.555542 297.619049,346.819855 
	C296.678925,349.203918 294.872955,351.360718 293.052948,353.236053 
	C292.128265,354.188873 291.056061,352.568451 290.176483,351.987457 
	C283.106049,347.317139 276.124603,342.511688 269.041107,337.861603 
	C260.148224,332.023804 253.558319,332.821625 248.182404,340.236633 
	C242.182968,348.511658 243.312988,357.270264 251.604019,363.353424 
	C258.432281,368.363312 265.436462,373.181763 272.683411,377.553436 
	C276.657532,379.950836 274.288330,381.629822 272.979370,383.776581 
	C271.550140,386.120636 270.568298,388.128387 267.082642,385.687988 
	C254.697281,377.016907 242.145248,368.573486 229.450699,360.361725 
	C226.304306,358.326416 226.797501,356.915588 228.675125,354.644073 
	C230.210999,352.786011 230.947906,349.286133 234.405029,352.433380 
	C235.105392,353.070923 236.013290,353.480499 237.474289,354.406250 
	C236.156967,346.794281 237.705902,340.425873 241.588181,334.570129 
	C248.865936,323.592926 259.643646,320.861267 270.889526,327.701569 
	C278.690918,332.446777 286.134888,337.779602 294.054840,343.023743 
z"/>
<path fill="#000000" opacity="1.000000" stroke="none" 
	d="
M797.922058,363.911133 
	C795.388306,352.017548 799.103271,342.802704 808.490845,336.032593 
	C817.496216,329.538208 827.357849,328.424744 837.040222,334.088531 
	C847.063416,339.951630 852.533203,348.885498 851.970337,360.899658 
	C851.931885,361.718964 851.899963,362.652740 851.503662,363.317993 
	C850.601868,364.831604 851.489319,368.581482 848.260437,367.255463 
	C845.958008,366.309937 841.314087,367.158386 842.726013,361.350983 
	C844.994080,352.022461 838.162903,342.284821 828.907715,340.264465 
	C819.721375,338.259094 808.529663,345.465088 806.284973,354.830505 
	C804.065125,364.092560 810.298401,374.128510 820.167969,376.209381 
	C825.381836,377.308594 823.330444,381.009735 823.292236,383.542145 
	C823.242798,386.814606 820.188049,385.265228 818.659363,384.968506 
	C807.201355,382.744659 801.383972,374.713531 797.922058,363.911133 
z"/>
<path fill="#000000" opacity="1.000000" stroke="none" 
	d="
M382.621094,866.192627 
	C378.945618,863.355286 382.513641,861.359619 383.216248,859.286926 
	C383.964600,857.079407 385.739563,859.066284 386.905640,859.484131 
	C390.477997,860.764038 394.742981,864.184509 397.273041,863.158508 
	C399.822296,862.124695 400.643860,856.774780 402.173920,853.294556 
	C406.110382,844.340881 410.271484,835.473694 413.827087,826.370483 
	C415.443268,822.232727 417.288116,823.509583 420.061371,824.612488 
	C423.112183,825.825745 424.544952,826.821228 422.830353,830.504700 
	C417.724548,841.473694 413.154907,852.691772 408.093536,863.682495 
	C406.573608,866.983032 406.694824,868.851013 410.469452,869.731873 
	C413.623505,870.467957 414.611145,871.770874 413.165466,875.293518 
	C411.581635,879.152771 409.531128,878.430542 407.180115,876.900024 
	C403.786194,874.690369 402.667816,876.316284 401.273499,879.354980 
	C395.558075,891.810730 381.332306,893.736938 371.763794,883.731079 
	C369.246155,881.098389 370.782593,879.930786 372.504425,878.179260 
	C374.154358,876.500916 375.369385,875.062988 377.367157,877.918579 
	C378.946686,880.176331 381.576447,881.146423 384.252045,881.556885 
	C388.276031,882.174255 392.003845,879.007874 393.617889,873.560852 
	C394.909027,869.203430 390.556610,870.345642 388.821533,869.051270 
	C387.136230,867.794067 384.948181,867.210693 382.621094,866.192627 
z"/>
<path fill="#000000" opacity="1.000000" stroke="none" 
	d="
M888.222168,616.025879 
	C876.144104,617.810913 864.498657,619.558655 852.481628,621.362183 
	C852.932251,623.331970 854.523438,624.029968 855.685120,624.958374 
	C864.394836,631.919617 873.148254,638.826294 881.895935,645.739929 
	C888.268555,650.776428 888.273987,650.769592 884.764648,659.045532 
	C871.160339,648.263245 857.728760,637.434509 844.057068,626.917969 
	C840.854187,624.454163 839.791870,622.358704 840.984863,618.314453 
	C841.998474,614.877869 843.705322,613.611084 846.974426,613.127869 
	C863.260742,610.720764 879.544556,608.283325 895.784058,605.584717 
	C899.148499,605.025696 899.005249,605.735291 898.760681,608.688965 
	C898.200684,615.449829 893.438171,615.543091 888.222168,616.025879 
z"/>
<path fill="#000000" opacity="1.000000" stroke="none" 
	d="
M376.342316,828.257202 
	C377.368256,826.508240 378.210907,825.077148 378.996643,823.615479 
	C382.807587,816.526306 380.456787,811.186707 372.493225,809.816833 
	C369.464233,809.295837 368.782043,808.413025 369.131348,805.456909 
	C369.497742,802.356140 370.810699,801.683044 373.665649,801.928406 
	C387.572235,803.123047 394.436981,815.677856 387.670654,827.847473 
	C383.799683,834.809814 379.940857,841.790466 375.729370,848.546448 
	C373.858643,851.547424 373.539520,853.194031 377.185516,854.880859 
	C380.981232,856.636963 381.119659,860.434143 377.885773,862.976135 
	C376.152954,864.338318 374.941040,862.762573 374.016296,861.979919 
	C370.337006,858.866089 368.310455,860.309326 366.846161,864.142090 
	C366.612366,864.754089 366.086456,865.258484 365.875153,865.874268 
	C364.492950,869.902466 362.346283,868.943726 359.529053,867.244019 
	C356.843140,865.623413 354.962952,864.733337 357.381989,861.037781 
	C361.407257,854.888550 361.108734,854.694641 354.625610,850.967102 
	C353.617798,850.387695 352.664795,849.688110 351.607239,849.224976 
	C348.960388,848.065796 347.894409,846.949951 349.729706,843.780945 
	C351.606140,840.540833 353.013763,840.760803 355.812469,842.412292 
	C365.081512,847.881897 365.144836,847.780334 370.461090,838.508911 
	C372.359772,835.197632 374.242676,831.877258 376.342316,828.257202 
z"/>
<path fill="#000000" opacity="1.000000" stroke="none" 
	d="
M744.252930,270.226562 
	C747.294189,266.448334 749.931458,262.778625 752.977295,259.486969 
	C755.287964,256.989746 754.866699,255.482117 752.217285,253.813156 
	C749.753601,252.261215 747.742432,250.954437 750.738525,247.440369 
	C753.403076,244.315231 754.978943,245.357300 756.878601,247.479660 
	C759.525391,250.436768 761.459534,249.778961 763.161987,246.612000 
	C763.317078,246.323380 763.571411,246.087967 763.780640,245.828568 
	C767.302368,241.462296 771.140259,241.728745 774.152100,246.434982 
	C775.447327,248.458893 773.418213,249.060776 772.691833,250.027145 
	C767.957886,256.324677 767.908997,256.287201 774.134521,261.247437 
	C775.045288,261.973114 775.864075,262.868256 776.874084,263.405670 
	C780.569336,265.372009 778.347717,267.149567 776.949097,269.230286 
	C775.384766,271.557648 774.154968,271.691254 771.972717,269.822479 
	C769.104797,267.366516 766.088013,262.880798 762.988281,263.479126 
	C760.074097,264.041534 757.910828,268.702820 755.503235,271.631409 
	C752.120117,275.746399 748.758850,279.881897 745.492432,284.089478 
	C740.553101,290.451904 742.066772,296.693817 749.723206,298.771301 
	C754.229675,299.994049 752.442261,302.120667 751.988220,304.523682 
	C751.322083,308.049164 749.084778,306.859497 747.031982,306.248016 
	C733.141541,302.110535 729.020325,289.638733 737.812439,278.320892 
	C739.855164,275.691376 741.952515,273.104279 744.252930,270.226562 
z"/>
<path fill="#000000" opacity="1.000000" stroke="none" 
	d="
M615.807068,209.559937 
	C619.087036,195.766266 622.449097,182.417099 625.354858,168.969360 
	C626.210815,165.007660 628.123657,165.392349 630.879028,166.169556 
	C633.534851,166.918686 636.123291,166.938202 635.002808,171.356720 
	C629.582825,192.729385 624.406189,214.167038 619.484558,235.659790 
	C618.595947,239.540421 616.979919,239.601929 614.058594,238.631500 
	C611.617249,237.820511 608.400574,238.350266 609.852356,233.613678 
	C612.228699,225.860779 613.802551,217.861893 615.807068,209.559937 
z"/>
<path fill="#000000" opacity="1.000000" stroke="none" 
	d="
M665.082153,177.904099 
	C657.995056,199.671783 650.902893,221.064987 644.049622,242.534424 
	C642.954346,245.965469 641.836243,247.016190 638.259155,245.561691 
	C635.262573,244.343201 633.130859,244.034027 634.652954,239.613129 
	C641.611572,219.401947 648.093567,199.026794 654.783630,178.722687 
	C655.364319,176.960220 655.267273,173.807663 657.289551,173.994263 
	C660.029480,174.247086 663.532532,174.239777 665.082153,177.904099 
z"/>
<path fill="#000000" opacity="1.000000" stroke="none" 
	d="
M818.772583,718.144470 
	C813.808472,715.064087 809.300964,711.901550 804.477844,709.331299 
	C800.434937,707.176758 803.380127,705.320740 804.414185,703.596008 
	C805.493042,701.796631 805.846191,698.603699 809.687195,701.043579 
	C828.742371,713.147461 847.906067,725.083984 867.170105,736.852722 
	C871.343201,739.402100 868.038330,741.079285 867.125061,743.098938 
	C866.024719,745.532471 865.015259,747.156677 861.711792,745.028931 
	C847.617798,735.951050 833.317566,727.193420 818.772583,718.144470 
z"/>
<path fill="#000000" opacity="1.000000" stroke="none" 
	d="
M371.440399,227.621994 
	C370.945862,226.716827 370.662872,226.117767 370.364471,225.526535 
	C368.239105,221.315674 370.522308,217.162643 375.278259,217.223801 
	C378.459839,217.264709 377.414337,221.343918 380.224976,222.863754 
	C381.412079,217.171967 384.719666,212.679276 389.748199,209.620651 
	C391.139862,208.774170 393.291473,206.098907 394.214478,209.727203 
	C394.803711,212.043579 400.022919,214.152191 394.645233,217.279037 
	C385.859131,222.387711 383.747589,229.536758 388.042633,238.896164 
	C391.353943,246.111832 394.863495,253.263672 398.774567,260.166412 
	C400.992401,264.080658 398.707458,264.822113 396.040802,266.123413 
	C393.572540,267.327850 391.860443,268.692047 390.037354,264.840759 
	C384.157318,252.419037 377.811249,240.217896 371.440399,227.621994 
z"/>
<path fill="#000000" opacity="1.000000" stroke="none" 
	d="
M661.232544,830.564941 
	C666.453491,844.628357 671.361145,858.388184 676.744751,871.959167 
	C678.245483,875.742188 677.045715,876.669556 673.852539,877.842285 
	C670.687317,879.004822 668.545288,879.364197 667.924438,875.240417 
	C667.781128,874.288330 667.194946,873.402954 666.553772,871.867188 
	C664.251404,878.457703 660.080200,882.712280 654.166077,885.375671 
	C652.166016,886.276367 650.822754,886.177307 650.687134,883.885132 
	C650.552490,881.610168 646.615173,879.330933 650.271301,877.094727 
	C662.126465,869.843750 663.788391,865.298645 658.972107,852.114014 
	C656.694397,845.878662 654.442078,839.631287 651.998596,833.460510 
	C650.994873,830.925659 650.625427,829.082153 654.044067,828.473938 
	C656.683594,828.004395 659.992737,824.454102 661.232544,830.564941 
z"/>
<path fill="#000000" opacity="1.000000" stroke="none" 
	d="
M228.683945,721.580444 
	C225.460144,720.540710 225.256958,717.421570 223.823776,715.171387 
	C223.055679,713.965515 224.339935,713.553955 225.102432,713.031372 
	C226.418274,712.129517 228.173828,711.869629 229.300400,710.018616 
	C222.959396,708.742493 218.439270,705.088623 214.997543,699.892151 
	C213.861588,698.177124 213.528519,696.642883 215.818466,696.187927 
	C218.111237,695.732422 219.899857,691.138733 222.705200,694.922607 
	C230.191025,705.019409 236.189972,706.478516 247.381104,700.537537 
	C253.690826,697.187866 260.122681,694.019470 266.171143,690.243408 
	C270.318848,687.653992 270.623627,690.903442 272.104065,693.066284 
	C273.902161,695.693054 274.154816,697.236816 270.724426,699.016602 
	C256.717285,706.283630 242.891983,713.901123 228.683945,721.580444 
z"/>
<path fill="#000000" opacity="1.000000" stroke="none" 
	d="
M254.173737,394.961609 
	C256.163940,395.897339 257.799347,396.712769 259.441681,397.514038 
	C264.979095,400.215637 265.347656,402.263397 261.528870,407.257599 
	C260.545654,408.543457 259.755371,408.390503 258.649597,407.854126 
	C244.159134,400.824951 229.621109,393.891022 215.210327,386.702057 
	C211.023987,384.613647 215.393600,382.398499 215.770432,380.291901 
	C216.125687,378.305939 217.005768,376.748993 219.833374,378.175354 
	C231.097839,383.857574 242.482162,389.302216 254.173737,394.961609 
z"/>
<path fill="#000000" opacity="1.000000" stroke="none" 
	d="
M454.254089,242.093811 
	C450.840881,244.920868 447.597992,245.043854 444.601746,242.284546 
	C442.289520,240.155212 441.892090,237.282410 443.191437,234.510010 
	C444.614563,231.473511 447.276123,230.262238 450.611816,230.850708 
	C455.294861,231.676834 456.975891,236.457230 454.254089,242.093811 
z"/>
<path fill="#000000" opacity="1.000000" stroke="none" 
	d="
M599.036743,857.223938 
	C594.393982,856.747620 592.670837,854.028870 592.701721,850.055969 
	C592.726440,846.884827 594.379272,844.654480 597.533264,843.960266 
	C600.744080,843.253601 603.470459,844.118469 605.114319,847.224365 
	C606.713196,850.245178 606.218262,852.991028 603.886902,855.421631 
	C602.674683,856.685486 601.124023,857.201843 599.036743,857.223938 
z"/>
<path fill="#000000" opacity="1.000000" stroke="none" 
	d="
M206.661682,374.738770 
	C205.757446,378.330200 203.781830,380.520630 200.400604,380.667297 
	C197.733582,380.783020 195.650513,379.321533 194.526962,376.781677 
	C193.376999,374.182098 194.178574,371.899261 195.833542,369.841461 
	C197.485291,367.787628 199.748352,367.339722 202.145172,368.009094 
	C205.283386,368.885651 206.565567,371.271729 206.661682,374.738770 
z"/>
<path fill="#000000" opacity="1.000000" stroke="none" 
	d="
M863.873901,479.828979 
	C877.335388,478.184265 890.370117,476.688782 903.367798,474.921021 
	C906.718262,474.465363 907.720520,475.554352 907.960388,478.712585 
	C908.437988,485.000977 909.665833,491.252991 909.834534,497.540161 
	C910.239868,512.642639 900.751038,523.188110 885.849304,524.776306 
	C872.134583,526.237976 860.577759,517.193420 858.004150,502.701294 
	C856.873413,496.333496 856.336365,489.862244 855.350830,483.465515 
	C855.047363,481.495972 855.614868,480.697449 857.491455,480.528320 
	C859.475525,480.349518 861.453064,480.097137 863.873901,479.828979 
z"/>
<path fill="#000000" opacity="1.000000" stroke="none" 
	d="
M235.819672,431.539795 
	C238.354370,442.415192 233.656921,452.686920 224.984634,455.866150 
	C216.837631,458.852844 207.062027,454.954224 203.431290,447.270447 
	C199.424042,438.789886 203.420807,426.600098 211.663803,422.161774 
	C219.131027,418.141174 229.234131,420.813354 234.048767,428.113770 
	C234.683014,429.075500 235.154800,430.144348 235.819672,431.539795 
z"/>
<path fill="#000000" opacity="1.000000" stroke="none" 
	d="
M314.323975,803.424866 
	C313.816345,804.018860 313.111847,804.426575 313.528809,802.909729 
	C313.889130,802.905151 314.019989,803.048157 314.323975,803.424866 
z"/>
<path fill="#000000" opacity="1.000000" stroke="none" 
	d="
M761.304321,817.698853 
	C750.945374,821.091064 741.910522,817.254639 737.209961,807.793091 
	C733.124146,799.568970 735.713501,790.254333 743.540955,785.019165 
	C751.287476,779.838074 760.807922,781.426697 767.218384,788.970032 
	C773.744507,796.649414 773.813965,806.700928 767.220886,813.361572 
	C765.609802,814.989197 763.526794,816.149658 761.304321,817.698853 
z"/>
<path fill="#000000" opacity="1.000000" stroke="none" 
	d="
M310.699341,288.231384 
	C304.177795,297.457642 295.368958,304.465454 287.842133,312.891754 
	C282.289276,305.115967 282.503632,297.366730 288.054596,291.085358 
	C294.140564,284.198517 301.823669,283.133942 310.699341,288.231384 
z"/>
<path fill="#000000" opacity="1.000000" stroke="none" 
	d="
M879.211060,579.242676 
	C879.880554,571.678528 880.764282,564.574158 881.050049,557.445740 
	C881.242004,552.658875 883.038513,552.817322 886.449402,554.631104 
	C893.145874,558.191956 896.353333,564.974365 894.948120,573.137634 
	C893.641174,580.729431 888.033752,585.546021 879.235168,586.579712 
	C878.479553,584.293823 879.202148,581.985474 879.211060,579.242676 
z"/>
<path fill="#000000" opacity="1.000000" stroke="none" 
	d="
M844.813232,694.041016 
	C848.665161,685.547668 852.551514,677.499023 855.983276,669.261047 
	C857.611633,665.352112 858.994751,666.018677 861.355103,668.443604 
	C866.421143,673.648315 867.628174,680.964294 864.315613,687.701172 
	C860.835205,694.779358 854.331421,698.311401 846.858948,697.175537 
	C845.277710,696.935181 843.088013,697.160950 844.813232,694.041016 
z"/>
<path fill="#000000" opacity="1.000000" stroke="none" 
	d="
M691.372742,847.376160 
	C690.169556,845.015930 692.169312,844.921082 693.114197,844.390686 
	C701.076965,839.921021 709.155151,835.654236 717.066528,831.097168 
	C720.190125,829.297852 720.635620,830.846619 721.045837,833.385254 
	C722.267517,840.944031 719.012756,847.474731 712.042053,851.219788 
	C705.071594,854.964600 698.130554,853.757263 691.372742,847.376160 
z"/>
<path fill="#000000" opacity="1.000000" stroke="none" 
	d="
M217.710571,644.328125 
	C220.545792,652.151306 223.243561,659.609497 225.917297,667.076233 
	C227.485977,671.456909 226.958054,672.227600 222.235123,671.846436 
	C214.888000,671.253540 209.964661,667.285583 207.381592,660.467773 
	C204.834015,653.743652 206.260117,647.739624 211.233780,642.650024 
	C215.035690,638.759460 215.654663,638.951599 217.710571,644.328125 
z"/>
<path fill="#000000" opacity="1.000000" stroke="none" 
	d="
M340.595459,247.247955 
	C346.761749,245.054825 352.031738,246.141907 356.911438,249.746231 
	C358.651154,251.031235 359.549316,252.000366 357.100830,253.676147 
	C349.298737,259.016022 341.562988,264.458221 333.930511,270.037292 
	C331.525482,271.795258 330.925354,270.565369 330.207825,268.597504 
	C327.200897,260.350708 330.921722,252.449829 340.595459,247.247955 
z"/>
<path fill="#000000" opacity="1.000000" stroke="none" 
	d="
M781.505127,308.360840 
	C784.968567,311.991028 788.093933,315.443604 791.372620,318.743835 
	C792.911804,320.293152 793.382629,321.274048 791.490173,323.100250 
	C787.233826,327.207611 782.468445,328.281372 776.951050,325.827240 
	C771.206848,323.272247 766.554688,316.992981 766.743530,312.174713 
	C766.868835,308.979218 768.602417,306.807556 771.274902,305.541962 
	C775.180115,303.692566 778.303833,305.726440 781.505127,308.360840 
z"/>
<path fill="#000000" opacity="1.000000" stroke="none" 
	d="
M279.753479,745.447937 
	C275.466095,741.167053 272.551453,736.274963 268.982391,731.902039 
	C267.703979,730.335693 268.086304,729.537781 269.528473,728.324890 
	C274.131744,724.453308 278.775391,723.892395 284.199677,726.852417 
	C289.963196,729.997559 293.995300,736.735840 293.148163,741.806824 
	C292.121887,747.950073 286.161774,749.722473 279.753479,745.447937 
z"/>
<path fill="#000000" opacity="1.000000" stroke="none" 
	d="
M461.286682,880.557190 
	C453.392639,884.419556 446.286072,883.347900 440.115051,877.915527 
	C434.188416,872.698425 433.592346,865.862793 435.782257,858.667297 
	C438.011932,851.341187 442.745758,846.681274 450.544098,845.645386 
	C457.970154,844.658936 465.607391,848.714172 468.810059,855.226501 
	C472.180573,862.080200 470.578064,871.797546 465.059692,877.502136 
	C464.028900,878.567749 462.757141,879.400146 461.286682,880.557190 
z"/>
<path fill="#000000" opacity="1.000000" stroke="none" 
	d="
M788.107483,765.887939 
	C781.560059,758.244507 780.627319,750.891663 785.074158,743.808716 
	C789.546936,736.684326 797.432556,733.626709 805.266663,735.979004 
	C813.264221,738.380371 819.442383,746.071472 819.598511,753.820801 
	C819.751709,761.419983 814.140625,769.059753 806.539734,771.334961 
	C799.428406,773.463623 793.562195,770.897278 788.107483,765.887939 
z"/>
</svg>